<mxfile host="app.diagrams.net" modified="2024-05-08T11:00:31.350Z" agent="Mozilla/5.0 (Windows NT 10.0; Win64; x64) AppleWebKit/537.36 (KHTML, like Gecko) Chrome/124.0.0.0 Safari/537.36" version="24.3.1" etag="F5QgRr6p2lKXV7KAGE8j" type="github">
  <diagram name="페이지-1" id="c_aP9E19Zm7ae-uhQH1i">
    <mxGraphModel>
      <root>
        <mxCell id="0" />
        <mxCell id="1" parent="0" />
      </root>
    </mxGraphModel>
  </diagram>
</mxfile>
